HIERARCHY
ROOT root
{
	OFFSET 0.000000 0.000000 0.000000
	CHANNELS 6 Xposition Yposition Zposition Zrotation Yrotation Xrotation
	JOINT lhip
	{
		OFFSET 0.058581 -0.082280 -0.017664
		CHANNELS 3 Zrotation Yrotation Xrotation
		JOINT lknee
		{
			OFFSET 0.043451 -0.386469 0.008037
			CHANNELS 3 Zrotation Yrotation Xrotation
			JOINT lankle
			{
				OFFSET -0.014790 -0.426874 -0.037428
				CHANNELS 3 Zrotation Yrotation Xrotation
				JOINT ltoe
				{
					OFFSET 0.041054 -0.060286 0.122042
					CHANNELS 3 Zrotation Yrotation Xrotation
					End Site
					{
						OFFSET 0.000000 0.000000 0.000000
					}
				}
			}
		}
	}
	JOINT rhip
	{
		OFFSET -0.060310 -0.090513 -0.013543
		CHANNELS 3 Zrotation Yrotation Xrotation
		JOINT rknee
		{
			OFFSET -0.043257 -0.383688 -0.004843
			CHANNELS 3 Zrotation Yrotation Xrotation
			JOINT rankle
			{
				OFFSET 0.019056 -0.420046 -0.034562
				CHANNELS 3 Zrotation Yrotation Xrotation
				JOINT rtoe
				{
					OFFSET -0.034840 -0.062106 0.130323
					CHANNELS 3 Zrotation Yrotation Xrotation
					End Site
					{
						OFFSET 0.000000 0.000000 0.000000
					}
				}
			}
		}
	}
	JOINT lowerback
	{
		OFFSET 0.004439 0.124404 -0.038385
		CHANNELS 3 Zrotation Yrotation Xrotation
		JOINT upperback
		{
			OFFSET 0.004488 0.137956 0.026820
			CHANNELS 3 Zrotation Yrotation Xrotation
			JOINT chest
			{
				OFFSET -0.002265 0.056032 0.002855
				CHANNELS 3 Zrotation Yrotation Xrotation
				JOINT lowerneck
				{
					OFFSET -0.013390 0.211636 -0.033468
					CHANNELS 3 Zrotation Yrotation Xrotation
					JOINT upperneck
					{
						OFFSET 0.010113 0.088937 0.050410
						CHANNELS 3 Zrotation Yrotation Xrotation
						End Site
						{
							OFFSET 0.000000 0.000000 0.000000
						}
					}
				}
				JOINT lclavicle
				{
					OFFSET 0.071702 0.114000 -0.018898
					CHANNELS 3 Zrotation Yrotation Xrotation
					JOINT lshoulder
					{
						OFFSET 0.122921 0.045205 -0.019046
						CHANNELS 3 Zrotation Yrotation Xrotation
						JOINT lelbow
						{
							OFFSET 0.255332 -0.015649 -0.022946
							CHANNELS 3 Zrotation Yrotation Xrotation
							JOINT lwrist
							{
								OFFSET 0.265709 0.012698 -0.007375
								CHANNELS 3 Zrotation Yrotation Xrotation
								End Site
								{
									OFFSET 0.000000 0.000000 0.000000
								}
							}
						}
					}
				}
				JOINT rclavicle
				{
					OFFSET -0.082954 0.112472 -0.023707
					CHANNELS 3 Zrotation Yrotation Xrotation
					JOINT rshoulder
					{
						OFFSET -0.113228 0.046853 -0.008472
						CHANNELS 3 Zrotation Yrotation Xrotation
						JOINT relbow
						{
							OFFSET -0.260127 -0.014369 -0.031269
							CHANNELS 3 Zrotation Yrotation Xrotation
							JOINT rwrist
							{
								OFFSET -0.269108 0.006794 -0.006027
								CHANNELS 3 Zrotation Yrotation Xrotation
								End Site
								{
									OFFSET 0.000000 0.000000 0.000000
								}
							}
						}
					}
				}
			}
		}
	}
}
MOTION
Frames: 7
Frame Time: 0.033333
-1.476375 1.417608 0.940480 58.572016 -1.993607 92.062135 5.533245 -1.736011 -21.365251 -2.778943 1.735093 33.274642 0.104561 7.492769 -26.950744 0.000000 -0.000000 0.000000 -1.478075 3.964054 -27.210878 -5.174342 -1.452547 32.513802 -1.323021 -9.884496 -26.622071 0.000000 -0.000000 0.000000 2.434578 -0.165212 26.228394 -2.058651 -1.762675 10.075874 2.366518 1.338447 -3.546333 -17.567858 15.049782 -32.872042 -4.760681 10.466036 -19.201252 -22.053768 -26.768794 3.157096 -59.569820 -12.067304 6.463620 20.091640 -36.593312 -3.728551 12.988668 -24.297701 -4.216549 21.403839 31.752416 11.869932 51.459176 18.886679 6.845385 -15.619432 30.474345 -3.894257 -3.604966 11.560665 -2.982390 
-1.477875 1.418329 0.939629 58.711321 -2.082866 92.081967 5.479199 -1.667414 -21.642258 -2.732495 1.826488 33.469757 0.165120 7.120148 -27.008919 0.000000 -0.000000 0.000000 -1.533303 3.894431 -27.537143 -5.441038 -1.612798 32.879116 -1.355943 -9.601657 -26.691890 0.000000 -0.000000 0.000000 2.454745 -0.259819 26.088004 -2.101676 -1.662581 10.773942 2.126601 1.514990 -3.833310 -17.536482 15.390531 -32.310857 -4.861469 10.539002 -19.564645 -21.931860 -26.511234 3.112215 -59.689564 -12.131859 7.361298 21.044689 -37.644828 -3.937582 13.811280 -23.915244 -5.764752 21.698724 31.409505 12.112187 51.652140 18.740273 7.400296 -16.280776 31.556107 -4.018443 -3.678556 11.595134 -3.733784 
-1.479134 1.418585 0.939355 58.809284 -2.134148 91.964678 5.444545 -1.678817 -21.644925 -2.625367 1.945191 33.526162 0.170002 6.882925 -27.002641 0.000000 -0.000000 0.000000 -1.497682 3.786753 -27.587242 -5.593023 -1.547777 33.103284 -1.448510 -9.477320 -26.838732 0.000000 -0.000000 0.000000 2.367369 -0.073268 26.489343 -2.026898 -1.713170 10.859642 2.299445 1.349038 -3.723826 -17.623680 15.638602 -32.941823 -4.732805 10.508596 -19.255853 -21.415318 -26.505483 2.804808 -60.504321 -12.291860 7.166507 21.768414 -38.242632 -4.658031 14.735118 -24.715979 -5.839335 21.134219 31.320538 11.680521 52.371430 18.602040 7.578820 -16.533330 32.572051 -3.736142 -3.836476 11.798850 -3.519716 
-1.480718 1.418947 0.938800 58.918220 -2.187125 92.044828 5.474417 -1.568763 -21.895978 -2.707476 1.937365 33.602034 0.052694 6.535617 -27.052301 0.000000 -0.000000 0.000000 -1.483755 3.742512 -27.953439 -5.801719 -1.633197 33.382088 -1.477301 -9.409434 -26.900877 0.000000 -0.000000 0.000000 2.361678 -0.091119 26.606722 -2.187577 -1.734775 10.951824 2.177399 1.399286 -3.740083 -16.986119 14.716201 -32.448139 -3.754400 9.587627 -19.796272 -21.678862 -26.670370 3.216047 -60.697300 -12.356998 6.864237 23.688956 -39.037524 -5.689683 14.514158 -24.708159 -5.443058 21.108821 31.541442 11.834782 52.837174 18.289330 7.390479 -16.652335 33.599192 -3.544688 -3.405778 11.406516 -4.593216 
-1.481608 1.419107 0.938649 59.099238 -2.129451 92.117186 5.484184 -1.300267 -22.200305 -2.601753 1.862347 33.824368 -0.012925 6.078049 -26.983732 0.000000 -0.000000 0.000000 -1.404392 3.662928 -28.142349 -5.901336 -1.678699 33.502436 -1.629005 -9.461603 -26.884204 0.000000 -0.000000 0.000000 2.488142 -0.145963 26.619823 -2.255395 -1.714505 10.866089 2.164515 1.339131 -3.611200 -16.309504 13.600032 -32.247361 -3.115256 8.718350 -19.978529 -21.985599 -26.716148 3.247345 -60.618962 -12.510648 6.643846 24.273133 -39.214292 -5.928943 13.748981 -24.988061 -4.673387 21.123376 31.775909 12.024787 52.802482 18.138376 7.184144 -16.334005 33.811940 -2.933444 -3.810439 11.703323 -4.286419 
-1.482960 1.419524 0.938431 59.369981 -2.124251 91.893883 5.530989 -1.409689 -22.253491 -2.687040 1.771167 34.075768 -0.073270 6.047360 -26.954304 0.000000 -0.000000 0.000000 -1.423269 3.745143 -27.998162 -6.031755 -1.921608 33.596376 -1.654093 -9.580366 -26.811519 0.000000 -0.000000 0.000000 2.575498 -0.410573 26.970836 -2.408645 -1.768600 11.028473 2.095008 1.288130 -3.586209 -14.818676 11.693872 -32.718002 -2.110652 7.227419 -19.514087 -22.315971 -26.659528 3.336174 -60.724049 -12.584077 6.401161 26.315657 -40.060744 -6.623700 12.464301 -24.843618 -3.336357 20.727759 32.391065 11.784989 53.283307 17.996381 7.118367 -16.514524 33.620330 -2.643638 -2.816160 11.716813 -4.761111 
-1.484409 1.420259 0.938031 59.617035 -2.149308 91.806324 5.425236 -1.341806 -22.439524 -2.498836 1.721214 34.255383 -0.039557 5.735965 -26.961217 0.000000 -0.000000 0.000000 -1.438399 3.783061 -28.108004 -6.273873 -2.169198 33.856626 -1.802110 -9.396154 -26.811047 0.000000 -0.000000 0.000000 2.582620 -0.552706 27.390845 -2.578066 -1.762182 10.852640 2.048838 1.200098 -3.665206 -13.453909 9.716724 -32.449314 -0.657634 5.587553 -19.492499 -22.615887 -26.657352 3.451005 -60.742261 -12.538208 5.916061 28.411074 -41.451151 -7.320254 9.446037 -24.264274 -0.924995 20.213540 32.864379 11.581179 54.010745 17.672447 6.666646 -16.536153 33.832670 -2.569460 -1.071522 11.548501 -4.983384 
